<svg id="Layer_1" data-name="Layer 1" xmlns="http://www.w3.org/2000/svg" viewBox="0 0 16.4 16.4"><path d="M8.19.09a8.2,8.2,0,1,0,8.21,8.2A8.19,8.19,0,0,0,8.19.09ZM13.87,5H11.45a12.72,12.72,0,0,0-1.13-2.92A6.62,6.62,0,0,1,13.87,5ZM8.2,1.76A11.61,11.61,0,0,1,9.76,5H6.63A11.64,11.64,0,0,1,8.2,1.76ZM1.85,9.93a6.89,6.89,0,0,1-.21-1.64,6.76,6.76,0,0,1,.21-1.64H4.62a14.72,14.72,0,0,0-.11,1.64,14.72,14.72,0,0,0,.11,1.64Zm.67,1.64H4.94a13.39,13.39,0,0,0,1.13,2.92A6.61,6.61,0,0,1,2.52,11.57ZM4.94,5H2.52A6.61,6.61,0,0,1,6.07,2.09,13.2,13.2,0,0,0,4.94,5Zm3.26,9.8a11.45,11.45,0,0,1-1.57-3.24H9.76A11.42,11.42,0,0,1,8.2,14.81Zm1.92-4.88H6.28a12.66,12.66,0,0,1-.13-1.64,12.52,12.52,0,0,1,.13-1.64h3.84a12.52,12.52,0,0,1,.13,1.64A12.66,12.66,0,0,1,10.12,9.93Zm.2,4.56a12.9,12.9,0,0,0,1.13-2.92h2.42A6.62,6.62,0,0,1,10.32,14.49Zm1.45-4.56a12.66,12.66,0,0,0,.12-1.64,12.66,12.66,0,0,0-.12-1.64h2.77a6.76,6.76,0,0,1,.22,1.64,6.9,6.9,0,0,1-.22,1.64Z"/></svg>