<svg width="26" height="25" viewBox="0 0 26 25" fill="none" xmlns="http://www.w3.org/2000/svg">
<path d="M17.2541 9.375C17.2541 10.6182 16.7583 11.8105 15.8759 12.6896C14.9934 13.5686 13.7965 14.0625 12.5484 14.0625C11.3004 14.0625 10.1035 13.5686 9.22103 12.6896C8.33855 11.8105 7.84277 10.6182 7.84277 9.375C7.84277 8.1318 8.33855 6.93951 9.22103 6.06044C10.1035 5.18136 11.3004 4.6875 12.5484 4.6875C13.7965 4.6875 14.9934 5.18136 15.8759 6.06044C16.7583 6.93951 17.2541 8.1318 17.2541 9.375Z" fill="black"/>
<path fill-rule="evenodd" clip-rule="evenodd" d="M0 12.5C0 9.18479 1.32207 6.00537 3.67536 3.66117C6.02865 1.31696 9.2204 0 12.5485 0C15.8765 0 19.0683 1.31696 21.4216 3.66117C23.7749 6.00537 25.0969 9.18479 25.0969 12.5C25.0969 15.8152 23.7749 18.9946 21.4216 21.3388C19.0683 23.683 15.8765 25 12.5485 25C9.2204 25 6.02865 23.683 3.67536 21.3388C1.32207 18.9946 0 15.8152 0 12.5ZM12.5485 1.5625C10.4808 1.56261 8.4551 2.14432 6.70465 3.24067C4.95419 4.33702 3.55009 5.90345 2.65394 7.75968C1.7578 9.6159 1.40603 11.6865 1.63914 13.7331C1.87225 15.7796 2.68075 17.7191 3.97159 19.3281C5.08526 17.5406 7.53692 15.625 12.5485 15.625C17.56 15.625 20.0101 17.5391 21.1253 19.3281C22.4162 17.7191 23.2247 15.7796 23.4578 13.7331C23.6909 11.6865 23.3391 9.6159 22.443 7.75968C21.5468 5.90345 20.1427 4.33702 18.3923 3.24067C16.6418 2.14432 14.6162 1.56261 12.5485 1.5625Z" fill="black"/>
</svg>
